Coordinates
version=1
nRows=12
nColumns=24
inDegrees=yes

Units are S.I. units (second, meters, Newtons, ...)
Angles are in degrees.

endheader
time	pelvis_tilt	pelvis_list	pelvis_rotation	pelvis_tx	pelvis_ty	pelvis_tz	hip_flexion_r	hip_adduction_r	hip_rotation_r	knee_angle_r	ankle_angle_r	subtalar_angle_r	mtp_angle_r	hip_flexion_l	hip_adduction_l	hip_rotation_l	knee_angle_l	ankle_angle_l	subtalar_angle_l	mtp_angle_l	lumbar_extension	lumbar_bending	lumbar_rotation
      0.72883333	      0.88016165	     -3.19571869	      3.23240722	     -0.39443677	      1.01251017	      0.29778605	      6.10481646	      6.07696785	     -1.17155718	    -17.45283257	     12.30254930	     -6.31715998	     -2.17609746	     13.62791615	     -2.98602652	      0.08457230	    -68.01872005	     -7.24623144	     -4.46712470	     -0.31144774	    -12.55009556	     12.09100576	     -1.96866502
      0.73300000	      0.96453950	     -3.05366696	      3.37074952	     -0.38924092	      1.01341241	      0.29776438	      5.46022658	      5.97242447	     -1.14662163	    -16.98782763	     12.26309060	     -6.49330286	     -2.23108901	     14.04703929	     -2.78666036	      0.21672280	    -67.79747365	     -6.42588707	     -4.80934240	     -0.35135324	    -12.67047146	     11.85338980	     -1.76299839
      0.73716667	      0.96461391	     -2.90056317	      3.49265287	     -0.38407812	      1.01416811	      0.29772024	      4.94460242	      5.84325669	     -1.16588861	    -16.60633978	     12.27383612	     -6.56980966	     -2.25085805	     14.55094259	     -2.56567052	      0.32734257	    -67.52803574	     -5.61899205	     -5.20957102	     -0.35567896	    -12.67717997	     11.63264488	     -1.68892447
      0.74133333	      1.04599940	     -2.73914970	      3.61676126	     -0.37890753	      1.01505644	      0.29771713	      4.29937725	      5.72433552	     -1.11920280	    -16.13091191	     12.19726049	     -6.77953836	     -2.30972168	     14.94123331	     -2.34423952	      0.43936780	    -67.16864904	     -4.86764822	     -5.55501067	     -0.40250106	    -12.81824212	     11.34980760	     -1.46644752
      0.74550000	      1.09336246	     -2.58172843	      3.72261463	     -0.37373967	      1.01587337	      0.29772654	      3.70425777	      5.60690238	     -1.07420763	    -15.68495911	     12.13143506	     -6.95182947	     -2.37415030	     15.35586496	     -2.13154945	      0.52175308	    -66.75869223	     -4.11699633	     -5.90924683	     -0.46101810	    -12.90606606	     11.09302957	     -1.29989582
      0.74966667	      1.06564462	     -2.41767353	      3.82154542	     -0.36859312	      1.01652947	      0.29769813	      3.22494892	      5.46697888	     -1.08963367	    -15.31664566	     12.11711201	     -7.02773111	     -2.39746464	     15.84440929	     -1.90209765	      0.59486954	    -66.30444255	     -3.36735607	     -6.25715344	     -0.47348015	    -12.88732941	     10.85440012	     -1.22876502
      0.75383333	      1.14503763	     -2.23260776	      3.91602912	     -0.36341818	      1.01739502	      0.29771813	      2.57312880	      5.32669159	     -1.01785976	    -14.82491629	     12.01483921	     -7.24813164	     -2.46222617	     16.17985272	     -1.66151951	      0.66230676	    -65.74491605	     -2.70859534	     -6.56980449	     -0.54213522	    -13.02537896	     10.54652508	     -1.00860467
      0.75800000	      1.16544012	     -2.05934176	      4.00339593	     -0.35826168	      1.01812046	      0.29771597	      2.01173441	      5.18904818	     -0.97226838	    -14.39119393	     11.93046509	     -7.40471891	     -2.52203690	     16.57244173	     -1.42658857	      0.72708621	    -65.14874325	     -2.02517090	     -6.85680189	     -0.61086131	    -13.09069739	     10.27015772	     -0.85270494
      0.76216667	      1.20088146	     -1.87576167	      4.07785123	     -0.35308656	      1.01887651	      0.29773027	      1.42568415	      5.04164773	     -0.92541921	    -13.94158324	     11.84494510	     -7.55561406	     -2.58669411	     16.92278683	     -1.18823442	      0.77078960	    -64.47704064	     -1.38142976	     -7.14282792	     -0.69539408	    -13.16231644	      9.98441342	     -0.69614108
      0.76633333	      1.22338629	     -1.69390297	      4.14748742	     -0.34792351	      1.01956696	      0.29772555	      0.86077011	      4.89269666	     -0.88594994	    -13.50689586	     11.75735249	     -7.69214216	     -2.65199536	     17.27251593	     -0.94729132	      0.81616691	    -63.75405600	     -0.74836725	     -7.39494166	     -0.78817311	    -13.22614054	      9.70158966	     -0.54490223
      0.77050000	      1.22477598	     -1.51947742	      4.19969051	     -0.34276718	      1.02019005	      0.29772562	      0.32590659	      4.74905340	     -0.83097062	    -13.08525904	     11.65158328	     -7.83172598	     -2.74072612	     17.62844536	     -0.71389611	      0.85166144	    -62.98002015	     -0.11940320	     -7.64092732	     -0.93362464	    -13.27356030	      9.43803275	     -0.37035167
      0.77466667	      1.23284939	     -1.33817197	      4.26717836	     -0.33760512	      1.02082236	      0.29770225	     -0.22555622	      4.59677391	     -0.80695153	    -12.64499310	     11.55249747	     -7.94989596	     -2.81648221	     17.95735890	     -0.46694699	      0.90972908	    -62.13938396	      0.45956260	     -7.83208061	     -1.06454134	    -13.31912320	      9.15708419	     -0.23375345
